<?xml version="1.0" encoding="UTF-8" standalone="no"?>
<svg
   t="1732784357427"
   class="icon"
   viewBox="0 0 1024 1024"
   version="1.1"
   p-id="1699"
   width="16"
   height="16"
   id="svg1"
   sodipodi:docname="align_top_white.svg"
   inkscape:version="1.3.2 (091e20e, 2023-11-25, custom)"
   xmlns:inkscape="http://www.inkscape.org/namespaces/inkscape"
   xmlns:sodipodi="http://sodipodi.sourceforge.net/DTD/sodipodi-0.dtd"
   xmlns="http://www.w3.org/2000/svg"
   xmlns:svg="http://www.w3.org/2000/svg">
  <defs
     id="defs1" />
  <sodipodi:namedview
     id="namedview1"
     pagecolor="#ffffff"
     bordercolor="#000000"
     borderopacity="0.25"
     inkscape:showpageshadow="2"
     inkscape:pageopacity="0.0"
     inkscape:pagecheckerboard="0"
     inkscape:deskcolor="#d1d1d1"
     inkscape:zoom="25.40625"
     inkscape:cx="12.221402"
     inkscape:cy="10.410824"
     inkscape:window-width="1920"
     inkscape:window-height="1009"
     inkscape:window-x="-8"
     inkscape:window-y="-8"
     inkscape:window-maximized="1"
     inkscape:current-layer="svg1" />
  <path
     d="M 579.17627,1017.6516 V 219.97272 c 0,-3.49163 2.62864,-6.34842 5.84141,-6.34842 H 796.4769 c 3.21277,0 5.84141,2.85679 5.84141,6.34842 v 797.67888 c 0,3.4916 -2.62864,6.3484 -5.84141,6.3484 H 585.01768 c -3.21277,0 -5.84141,-2.8568 -5.84141,-6.3484 z M 224.89447,757.3664 V 219.97272 c 0,-3.49163 2.62863,-6.34842 5.84141,-6.34842 h 211.45921 c 3.21278,0 5.84142,2.85679 5.84142,6.34842 v 537.07626 c 0,3.49163 -2.62864,6.34842 -5.84142,6.34842 H 230.73588 c -3.21278,0.31742 -5.84141,-2.53937 -5.84141,-6.031 z M 0,42.534408 C 0,19.045257 17.524244,0 39.429549,0 H 984.57045 C 1006.1837,0 1024,19.045257 1024,42.534408 c 0,23.489151 -17.5242,42.534408 -39.42955,42.534408 H 39.429549 C 17.816315,85.386237 0,66.34098 0,42.534408 Z"
     p-id="1700"
     fill="#ffffff"
     id="path1"
     style="stroke-width:1.48673" />
</svg>
