<?xml version="1.0" encoding="UTF-8" standalone="no"?>
<svg
   t="1732784374392"
   class="icon"
   viewBox="0 0 1024 1024"
   version="1.1"
   p-id="1957"
   width="16"
   height="16"
   id="svg1"
   sodipodi:docname="align_left_white.svg"
   inkscape:version="1.3.2 (091e20e, 2023-11-25, custom)"
   xmlns:inkscape="http://www.inkscape.org/namespaces/inkscape"
   xmlns:sodipodi="http://sodipodi.sourceforge.net/DTD/sodipodi-0.dtd"
   xmlns="http://www.w3.org/2000/svg"
   xmlns:svg="http://www.w3.org/2000/svg">
  <defs
     id="defs1" />
  <sodipodi:namedview
     id="namedview1"
     pagecolor="#ffffff"
     bordercolor="#000000"
     borderopacity="0.25"
     inkscape:showpageshadow="2"
     inkscape:pageopacity="0.0"
     inkscape:pagecheckerboard="0"
     inkscape:deskcolor="#d1d1d1"
     inkscape:zoom="25.40625"
     inkscape:cx="8.7183272"
     inkscape:cy="11.276753"
     inkscape:window-width="1920"
     inkscape:window-height="1009"
     inkscape:window-x="-8"
     inkscape:window-y="-8"
     inkscape:window-maximized="1"
     inkscape:current-layer="svg1" />
  <path
     d="M 1017.6516,444.82373 H 219.97272 c -3.49163,0 -6.34842,-2.62864 -6.34842,-5.84141 V 227.5231 c 0,-3.21277 2.85679,-5.84141 6.34842,-5.84141 h 797.67888 c 3.4916,0 6.3484,2.62864 6.3484,5.84141 v 211.45922 c 0,3.21277 -2.8568,5.84141 -6.3484,5.84141 z M 757.3664,799.10553 H 219.97272 c -3.49163,0 -6.34842,-2.62863 -6.34842,-5.84141 V 581.80491 c 0,-3.21278 2.85679,-5.84142 6.34842,-5.84142 h 537.07626 c 3.49163,0 6.34842,2.62864 6.34842,5.84142 v 211.45921 c 0.31742,3.21278 -2.53937,5.84141 -6.031,5.84141 z M 42.534408,1024 C 19.045257,1024 0,1006.4758 0,984.57045 V 39.429549 C 0,17.816315 19.045257,0 42.534408,0 66.023559,0 85.068816,17.524244 85.068816,39.429549 V 984.57045 C 85.386237,1006.1837 66.34098,1024 42.534408,1024 Z"
     p-id="1958"
     fill="#ffffff"
     id="path1"
     style="stroke-width:1.48673" />
</svg>
