<?xml version="1.0" encoding="UTF-8" standalone="no"?>
<svg
   t="1732784428273"
   class="icon"
   viewBox="0 0 1024 1024"
   version="1.1"
   p-id="3715"
   width="16"
   height="16"
   id="svg1"
   sodipodi:docname="align_bottom_white.svg"
   inkscape:version="1.3.2 (091e20e, 2023-11-25, custom)"
   xmlns:inkscape="http://www.inkscape.org/namespaces/inkscape"
   xmlns:sodipodi="http://sodipodi.sourceforge.net/DTD/sodipodi-0.dtd"
   xmlns="http://www.w3.org/2000/svg"
   xmlns:svg="http://www.w3.org/2000/svg">
  <defs
     id="defs1" />
  <sodipodi:namedview
     id="namedview1"
     pagecolor="#ffffff"
     bordercolor="#000000"
     borderopacity="0.25"
     inkscape:showpageshadow="2"
     inkscape:pageopacity="0.0"
     inkscape:pagecheckerboard="0"
     inkscape:deskcolor="#d1d1d1"
     inkscape:zoom="25.40625"
     inkscape:cx="10.548585"
     inkscape:cy="14.169742"
     inkscape:window-width="1397"
     inkscape:window-height="1032"
     inkscape:window-x="107"
     inkscape:window-y="67"
     inkscape:window-maximized="0"
     inkscape:current-layer="svg1" />
  <path
     d="M 444.82373,6.3484191 V 804.02728 c 0,3.49163 -2.62864,6.34842 -5.84141,6.34842 H 227.5231 c -3.21277,0 -5.84141,-2.85679 -5.84141,-6.34842 V 6.3484191 C 221.68169,2.8567886 224.31033,0 227.5231,0 h 211.45922 c 3.21277,0 5.84141,2.8567886 5.84141,6.3484191 z M 799.10553,266.6336 v 537.39368 c 0,3.49163 -2.62863,6.34842 -5.84141,6.34842 H 581.80491 c -3.21278,0 -5.84142,-2.85679 -5.84142,-6.34842 V 266.6336 c 0,-3.49163 2.62864,-6.34842 5.84142,-6.34842 h 211.45921 c 3.21278,0 5.84141,2.85679 5.84141,6.34842 z M 1024,981.46559 C 1024,1004.9547 1006.4758,1024 984.57045,1024 H 39.429549 C 17.816315,1024 0,1004.9547 0,981.46559 0,957.97644 17.524244,938.93118 39.429549,938.93118 H 984.57045 C 1006.1837,938.61376 1024,957.65902 1024,981.46559 Z"
     p-id="3716"
     fill="#ffffff"
     id="path1"
     style="stroke-width:1.48673" />
</svg>
