<?xml version="1.0" encoding="UTF-8" standalone="no"?>
<svg
   t="1730086189257"
   class="icon"
   viewBox="0 0 1024 1024"
   version="1.1"
   p-id="5157"
   width="16"
   height="16"
   id="svg1"
   sodipodi:docname="annotation_black.svg"
   inkscape:version="1.3.2 (091e20e, 2023-11-25, custom)"
   xmlns:inkscape="http://www.inkscape.org/namespaces/inkscape"
   xmlns:sodipodi="http://sodipodi.sourceforge.net/DTD/sodipodi-0.dtd"
   xmlns="http://www.w3.org/2000/svg"
   xmlns:svg="http://www.w3.org/2000/svg">
  <defs
     id="defs1" />
  <sodipodi:namedview
     id="namedview1"
     pagecolor="#ffffff"
     bordercolor="#000000"
     borderopacity="0.25"
     inkscape:showpageshadow="2"
     inkscape:pageopacity="0.0"
     inkscape:pagecheckerboard="0"
     inkscape:deskcolor="#d1d1d1"
     inkscape:zoom="25.40625"
     inkscape:cx="6.9471095"
     inkscape:cy="10.292743"
     inkscape:window-width="1920"
     inkscape:window-height="1009"
     inkscape:window-x="-8"
     inkscape:window-y="-8"
     inkscape:window-maximized="1"
     inkscape:current-layer="svg1" />
  <path
     d="M 475.8829,829.97554 923.73488,397.51448 c 2.01309,-1.94339 2.96041,-4.57268 2.72359,-7.20197 L 896.2622,45.761193 c -0.82891,-8.91672 -8.05233,-15.890056 -17.28883,-16.690275 L 522.06542,0.03441028 c -2.72358,-0.228634 -5.56558,0.685902 -7.46026,2.62929002 L 66.753197,435.01044 c -3.670929,3.54383 -3.670929,9.37399 0,12.91782 L 462.50182,829.97554 c 3.67092,3.65814 9.71017,3.65814 13.38108,0 z M 550.01176,84.971913 815.97568,106.69213 838.47485,363.44802 469.13315,719.8883 180.67006,441.52651 Z m 71.23831,212.887897 a 56.840018,54.872141 0 1 0 80.38127,-77.60178 56.840018,54.872141 0 1 0 -80.38127,77.60178 z m 335.99673,245.75174 -46.89301,-45.1552 c -3.67092,-3.54382 -9.71017,-3.54382 -13.38108,0 L 468.30423,911.48353 186.94614,640.55233 c -3.67091,-3.54382 -9.71017,-3.54382 -13.38108,0 l -46.89302,45.1552 c -3.67091,3.54383 -3.67091,9.37399 0,12.91782 l 287.98943,277.56155 46.89301,45.1552 c 3.67093,3.5439 9.71017,3.5439 13.38109,0 L 957.2468,556.52937 c 3.67093,-3.54383 3.67093,-9.37399 0,-12.91782 z"
     fill="#000000"
     p-id="5158"
     id="path1"
     style="stroke-width:1.16462" />
</svg>
