<?xml version="1.0" standalone="no"?><!DOCTYPE svg PUBLIC "-//W3C//DTD SVG 1.1//EN" "http://www.w3.org/Graphics/SVG/1.1/DTD/svg11.dtd"><svg t="1725343326996" class="icon" viewBox="0 0 1024 1024" version="1.1" xmlns="http://www.w3.org/2000/svg" p-id="12261" width="16" height="16" xmlns:xlink="http://www.w3.org/1999/xlink"><path d="M512 866.7c-233.7 0-423.9-152.5-423.9-340 0-187.4 190.2-339.9 423.9-339.9s423.9 152.5 423.9 339.9c0 187.5-190.2 340-423.9 340z m0-636.5c-209.8 0-380.5 133-380.5 296.5S302.2 823.3 512 823.3s380.5-133 380.5-296.5S721.8 230.2 512 230.2z" p-id="12262" fill="#ffffff"></path><path d="M490.3 0h43.4v1024h-43.4z" p-id="12263" fill="#ffffff"></path><path d="M254.7 448.1m-38.1 0a38.1 38.1 0 1 0 76.2 0 38.1 38.1 0 1 0-76.2 0Z" p-id="12264" fill="#ffffff"></path><path d="M410 574.5m-38.1 0a38.1 38.1 0 1 0 76.2 0 38.1 38.1 0 1 0-76.2 0Z" p-id="12265" fill="#ffffff"></path><path d="M284.3 666.2m-38.1 0a38.1 38.1 0 1 0 76.2 0 38.1 38.1 0 1 0-76.2 0Z" p-id="12266" fill="#ffffff"></path><path d="M668.7 440.4c-13.8 0-27.2-7.5-34-20.5-4.8-9.1-5.7-19.5-2.7-29.3s9.7-17.8 18.8-22.6c9.1-4.8 19.5-5.7 29.3-2.7s17.8 9.7 22.6 18.8c4.8 9.1 5.7 19.5 2.7 29.3s-9.7 17.8-18.8 22.6c-5.7 3-11.8 4.4-17.9 4.4z m-0.1-59.4c-3.3 0-6.6 0.8-9.8 2.4-5 2.6-8.6 7-10.3 12.4-1.7 5.4-1.1 11.1 1.5 16 5.4 10.3 18.2 14.2 28.4 8.8 5-2.6 8.6-7 10.3-12.4 1.7-5.4 1.1-11.1-1.5-16-3.7-7.1-11-11.2-18.6-11.2zM786.4 589.1c-13.8 0-27.2-7.5-34-20.5-9.9-18.7-2.6-42 16.1-51.9 9.1-4.8 19.5-5.7 29.3-2.7s17.8 9.7 22.6 18.8c4.8 9.1 5.7 19.5 2.7 29.3s-9.7 17.8-18.8 22.6c-5.7 2.9-11.8 4.4-17.9 4.4z m-0.1-59.5c-3.4 0-6.7 0.8-9.8 2.4-10.3 5.4-14.2 18.1-8.8 28.4 2.6 5 7 8.6 12.4 10.3 5.4 1.7 11.1 1.1 16-1.5 10.3-5.4 14.2-18.1 8.8-28.4-2.6-5-7-8.6-12.4-10.3-2-0.6-4.1-0.9-6.2-0.9zM626.6 711.2c-13.8 0-27.2-7.5-34.1-20.5-9.9-18.7-2.6-42 16.1-51.9 9.1-4.8 19.5-5.7 29.3-2.7s17.8 9.7 22.6 18.8c9.9 18.8 2.6 42-16.1 51.9-5.7 3-11.8 4.4-17.8 4.4z m-0.1-59.4c-3.4 0-6.7 0.8-9.8 2.4-10.3 5.4-14.2 18.1-8.8 28.4 5.4 10.2 18.1 14.2 28.4 8.8 10.3-5.4 14.2-18.1 8.8-28.4-2.6-5-7-8.6-12.4-10.3-2.1-0.6-4.2-0.9-6.2-0.9z" p-id="12267" fill="#ffffff"></path><path d="M411 378.6m-38.1 0a38.1 38.1 0 1 0 76.2 0 38.1 38.1 0 1 0-76.2 0Z" p-id="12268" fill="#ffffff"></path></svg>