<?xml version="1.0" encoding="UTF-8" standalone="no"?>
<svg
   t="1730770369477"
   class="icon"
   viewBox="0 0 1024 1024"
   version="1.1"
   p-id="5979"
   width="16"
   height="16"
   id="svg1"
   sodipodi:docname="compact_black.svg"
   inkscape:version="1.3.2 (091e20e, 2023-11-25, custom)"
   xmlns:inkscape="http://www.inkscape.org/namespaces/inkscape"
   xmlns:sodipodi="http://sodipodi.sourceforge.net/DTD/sodipodi-0.dtd"
   xmlns="http://www.w3.org/2000/svg"
   xmlns:svg="http://www.w3.org/2000/svg">
  <defs
     id="defs1" />
  <sodipodi:namedview
     id="namedview1"
     pagecolor="#ffffff"
     bordercolor="#000000"
     borderopacity="0.25"
     inkscape:showpageshadow="2"
     inkscape:pageopacity="0.0"
     inkscape:pagecheckerboard="0"
     inkscape:deskcolor="#d1d1d1"
     inkscape:zoom="35.929863"
     inkscape:cx="9.4211324"
     inkscape:cy="9.4489644"
     inkscape:window-width="1920"
     inkscape:window-height="1009"
     inkscape:window-x="-8"
     inkscape:window-y="-8"
     inkscape:window-maximized="1"
     inkscape:current-layer="svg1" />
  <path
     d="m 11.70786,203.21401 a 40.03326,38.344619 0 0 0 0,54.19372 l 262.08441,251.13169 a 4.4837252,4.2945974 0 0 1 0,5.93063 L 11.70786,765.60175 A 40.03326,38.344619 0 0 0 68.2882,819.79548 L 330.47936,568.76604 c 32.98741,-31.69823 32.98741,-82.82438 0,-114.52261 L 68.2882,203.21401 a 40.03326,38.344619 0 0 0 -56.58034,0 z m 999.55044,0 a 40.03326,38.344619 0 0 1 0,54.19372 L 749.17389,508.53942 a 4.4837252,4.2945974 0 0 0 0,5.93063 l 262.08441,251.1317 A 40.03326,38.344619 0 1 1 954.678,819.79548 L 692.59355,568.76604 a 84.550246,80.983836 0 0 1 0,-114.52261 L 954.678,203.21401 a 40.03326,38.344619 0 0 1 56.5803,0 z"
     fill="#000000"
     p-id="5980"
     id="path1"
     style="stroke-width:1.53047" />
</svg>
