<?xml version="1.0" encoding="UTF-8" standalone="no"?>
<svg
   t="1725268404632"
   class="icon"
   viewBox="0 0 256 256"
   version="1.1"
   p-id="10745"
   width="16"
   height="16"
   id="svg3"
   sodipodi:docname="dataset1_white.svg"
   inkscape:version="1.3.2 (091e20e, 2023-11-25, custom)"
   xmlns:inkscape="http://www.inkscape.org/namespaces/inkscape"
   xmlns:sodipodi="http://sodipodi.sourceforge.net/DTD/sodipodi-0.dtd"
   xmlns="http://www.w3.org/2000/svg"
   xmlns:svg="http://www.w3.org/2000/svg">
  <defs
     id="defs3" />
  <sodipodi:namedview
     id="namedview3"
     pagecolor="#ffffff"
     bordercolor="#000000"
     borderopacity="0.25"
     inkscape:showpageshadow="2"
     inkscape:pageopacity="0.0"
     inkscape:pagecheckerboard="0"
     inkscape:deskcolor="#d1d1d1"
     inkscape:zoom="8.9824658"
     inkscape:cx="42.69429"
     inkscape:cy="40.245074"
     inkscape:window-width="1920"
     inkscape:window-height="1009"
     inkscape:window-x="-8"
     inkscape:window-y="-8"
     inkscape:window-maximized="1"
     inkscape:current-layer="svg3" />
  <path
     d="m 239.888,108.99463 c 0.084,-0.54382 0.112,-1.08765 0.112,-1.63148 V 47.1127 C 240,36.9517 233.672,29.395349 228.38,24.872987 222.332,19.692308 213.932,15.141324 203.432,11.363148 183.132,4.035778 156.336,0 128,0 99.664,0 72.868,4.035778 52.568,11.363148 42.068,15.141324 33.668,19.692308 27.62,24.872987 22.328,29.395349 16,36.9517 16,47.1127 v 62.33989 c 0,0.54383 0.028,1.08766 0.112,1.63149 0.952,6.15384 4.228,11.84973 9.632,16.94454 C 20.2,133.35242 16,140.16458 16,148.60823 v 62.33989 c 0,0.54383 0.028,1.08766 0.112,1.63149 2.1,13.56708 15.428,24.90161 38.472,32.77281 C 74.632,252.22182 100.7,256 128,256 c 27.02,0 53.172,-4.17889 73.64,-11.76386 22.904,-8.47228 36.12,-20.15027 38.248,-33.74598 0.084,-0.54383 0.112,-1.08766 0.112,-1.63148 v -60.25045 c 0,-5.92487 -2.156,-13.73882 -10.752,-21.46691 6.02,-5.52415 9.604,-11.62075 10.64,-18.14669 z M 36.16,108.39356 V 75.36315 c 4.704,2.74776 10.192,5.26655 16.408,7.52773 20.3,7.32737 47.096,11.36315 75.432,11.36315 28.336,0 55.132,-4.03578 75.432,-11.36315 6.216,-2.26118 11.704,-4.77997 16.408,-7.52773 v 30.94096 c -1.26,4.29339 -9.408,11.24866 -25.06,17.05904 -18.34,6.78354 -42.056,10.53309 -66.78,10.53309 -25.172,0 -48.972,-3.40608 -67.004,-9.55993 C 45.456,119.01252 37.392,112.48658 36.16,108.39356 Z M 59.288,30.797853 c 18.2,-6.583184 42.588,-10.189624 68.712,-10.189624 26.096,0 50.512,3.635063 68.712,10.189624 16.968,6.125227 23.128,13.137747 23.128,16.314847 0,3.20573 -6.16,10.18963 -23.128,16.31485 -18.2,6.58318 -42.588,10.18962 -68.712,10.18962 -26.096,0 -50.512,-3.63506 -68.712,-10.18962 C 42.32,57.33095 36.16,50.31843 36.16,47.1127 c 0,-3.20572 6.16,-10.18962 23.128,-16.314847 z M 194.78,224.83005 c -18.34,6.78355 -42.056,10.5331 -66.78,10.5331 -25.172,0 -48.972,-3.40608 -67.004,-9.55993 -15.54,-5.32379 -23.604,-11.82111 -24.836,-15.91413 v -33.05904 c 4.704,2.74777 10.192,5.26655 16.408,7.52773 20.3,7.32737 47.096,11.36315 75.432,11.36315 28.336,0 55.132,-4.03578 75.432,-11.36315 6.216,-2.26118 11.704,-4.77996 16.408,-7.52773 v 30.94097 c -1.26,4.29338 -9.408,11.24866 -25.06,17.05903 z m 25.06,-76.22182 c 0,3.20572 -6.16,10.18962 -23.128,16.31485 -18.2,6.58318 -42.588,10.18962 -68.712,10.18962 -26.096,0 -50.512,-3.63506 -68.712,-10.18962 C 42.32,158.79785 36.16,151.78533 36.16,148.60823 c 0,-1.91771 2.1,-5.2093 7.756,-8.95886 3.276,1.48838 6.86,2.89088 10.696,4.20752 20.048,6.86941 46.116,10.64758 73.416,10.64758 27.02,0 53.172,-4.17889 73.64,-11.76386 3.276,-1.20215 6.356,-2.49016 9.24,-3.83542 6.132,3.8068 8.932,7.47048 8.932,9.70304 z"
     fill="#ffffff"
     p-id="10746"
     id="path1"
     style="stroke-width:0.283095" />
  <path
     d="m 198.84,102.9839 m -10.08,0 a 10.08,10.304114 0 1 0 20.16,0 10.08,10.304114 0 1 0 -20.16,0 z"
     fill="#ffffff"
     p-id="10747"
     id="path2"
     style="stroke-width:0.283095" />
  <path
     d="m 198.84,204.47943 m -10.08,0 a 10.08,10.304114 0 1 0 20.16,0 10.08,10.304114 0 1 0 -20.16,0 z"
     fill="#ffffff"
     p-id="10748"
     id="path3"
     style="stroke-width:0.283095" />
</svg>
