<?xml version="1.0" encoding="UTF-8" standalone="no"?>
<svg
   t="1725267783925"
   class="icon"
   viewBox="0 0 341.33333 341.33333"
   version="1.1"
   p-id="6491"
   width="16"
   height="16"
   id="svg1"
   sodipodi:docname="dataset_white.svg"
   inkscape:version="1.3.2 (091e20e, 2023-11-25, custom)"
   xmlns:inkscape="http://www.inkscape.org/namespaces/inkscape"
   xmlns:sodipodi="http://sodipodi.sourceforge.net/DTD/sodipodi-0.dtd"
   xmlns="http://www.w3.org/2000/svg"
   xmlns:svg="http://www.w3.org/2000/svg">
  <defs
     id="defs1" />
  <sodipodi:namedview
     id="namedview1"
     pagecolor="#ffffff"
     bordercolor="#000000"
     borderopacity="0.25"
     inkscape:showpageshadow="2"
     inkscape:pageopacity="0.0"
     inkscape:pagecheckerboard="0"
     inkscape:deskcolor="#d1d1d1"
     inkscape:zoom="8.46875"
     inkscape:cx="7.8523985"
     inkscape:cy="36.428044"
     inkscape:window-width="1920"
     inkscape:window-height="1009"
     inkscape:window-x="-8"
     inkscape:window-y="-8"
     inkscape:window-maximized="1"
     inkscape:current-layer="svg1" />
  <path
     d="M 281.09714,136.24762 341.33333,97.523809 170.66666,0 0,97.523809 60.23619,136.24762 0,170.66666 50.194285,202.93714 0,231.61905 170.66666,341.33333 341.33333,231.61905 291.13904,202.93714 341.33333,170.66666 Z m 13.2419,96.59809 -123.67238,79.50476 -123.672375,-79.50476 26.327619,-15.04381 97.344756,62.57905 97.34477,-62.57905 z m -27.07047,-43.55047 -23.12381,14.85714 -73.4781,47.24571 L 97.19238,204.16 74.068571,189.30286 46.998095,171.90095 83.363809,151.12 l 27.070471,17.4019 23.12381,14.85715 37.10857,23.85904 37.10858,-23.85523 23.12381,-14.85715 27.07047,-17.4019 36.36572,20.78095 z"
     p-id="6492"
     fill="#ffffff"
     id="path1"
     style="stroke-width:0.380952" />
</svg>
