<?xml version="1.0" encoding="UTF-8" standalone="no"?>
<svg
   t="1725269922474"
   class="icon"
   viewBox="0 0 256 256"
   version="1.1"
   p-id="13599"
   width="16"
   height="16"
   id="svg5"
   sodipodi:docname="detail_white.svg"
   inkscape:version="1.3.2 (091e20e, 2023-11-25, custom)"
   xmlns:inkscape="http://www.inkscape.org/namespaces/inkscape"
   xmlns:sodipodi="http://sodipodi.sourceforge.net/DTD/sodipodi-0.dtd"
   xmlns="http://www.w3.org/2000/svg"
   xmlns:svg="http://www.w3.org/2000/svg">
  <defs
     id="defs5" />
  <sodipodi:namedview
     id="namedview5"
     pagecolor="#ffffff"
     bordercolor="#000000"
     borderopacity="0.25"
     inkscape:showpageshadow="2"
     inkscape:pageopacity="0.0"
     inkscape:pagecheckerboard="0"
     inkscape:deskcolor="#d1d1d1"
     inkscape:zoom="6.3515625"
     inkscape:cx="36.132841"
     inkscape:cy="42.430504"
     inkscape:window-width="1920"
     inkscape:window-height="1009"
     inkscape:window-x="-8"
     inkscape:window-y="-8"
     inkscape:window-maximized="1"
     inkscape:current-layer="svg5" />
  <path
     d="M 149.04568,246.9305 H 8.7176207 V 9.0695009 H 237.35005 V 127.31979 c 0,2.50745 1.94864,4.53475 4.35881,4.53475 2.41016,0 4.35881,-2.0273 4.35881,-4.53475 V 4.5347505 0 H 241.70886 4.3588103 0 V 4.5347505 251.46525 256 H 4.3588103 149.04568 c 2.41016,0 4.35881,-2.0273 4.35881,-4.53475 0,-2.50745 -1.94865,-4.53475 -4.35881,-4.53475 z"
     p-id="13600"
     fill="#ffffff"
     id="path1"
     style="stroke-width:0.255573" />
  <path
     d="m 254.734,240.6352 -28.9989,-30.38283 c -0.641,-0.66688 -1.43584,-1.09368 -2.28197,-1.25372 8.07662,-9.62968 12.97388,-22.24696 12.97388,-36.03793 0,-30.30281 -23.6145,-54.87048 -52.74161,-54.87048 -29.12711,0 -52.74161,24.56767 -52.74161,54.87048 0,30.3028 23.6145,54.87048 52.74161,54.87048 13.25591,0 25.38366,-5.09493 34.66536,-13.52423 0.15384,0.8536 0.56408,1.68052 1.17944,2.3474 l 28.99891,30.38283 c 1.69225,1.78722 4.46138,1.78722 6.17926,0.0267 1.71788,-1.76055 1.71788,-4.64145 0.0256,-6.42867 z m -71.0486,-21.8735 c -24.30678,0 -44.02398,-20.51308 -44.02398,-45.80098 0,-25.28791 19.7172,-45.80098 44.02398,-45.80098 24.30678,0 44.02398,20.51307 44.02398,45.80098 0,25.2879 -19.69156,45.7743 -44.02398,45.80098 z"
     p-id="13601"
     fill="#ffffff"
     id="path2"
     style="stroke-width:0.255573" />
  <path
     d="m 126.04654,113.52881 c 0,-2.50745 -1.94864,-4.53475 -4.35881,-4.53475 H 39.280574 c -2.410167,0 -4.358812,2.0273 -4.358812,4.53475 0,2.50745 1.948645,4.53475 4.358812,4.53475 h 82.407156 c 2.41017,0 4.35881,-2.0273 4.35881,-4.53475 z"
     p-id="13602"
     fill="#ffffff"
     id="path3"
     style="stroke-width:0.255573" />
  <path
     d="m 204.60769,59.03178 c 0,-2.507449 -1.94865,-4.53475 -4.35881,-4.53475 H 39.280574 c -2.410167,0 -4.358812,2.027301 -4.358812,4.53475 0,2.507451 1.948645,4.534752 4.358812,4.534752 H 200.24888 c 2.41016,0 4.35881,-2.027301 4.35881,-4.534752 z"
     p-id="13603"
     fill="#ffffff"
     id="path4"
     style="stroke-width:0.255573" />
  <path
     d="m 39.280574,163.49109 c -2.410167,0 -4.358812,2.0273 -4.358812,4.53475 0,2.50745 1.948645,4.53475 4.358812,4.53475 h 47.485392 c 2.410166,0 4.358809,-2.0273 4.358809,-4.53475 0,-2.50745 -1.948643,-4.53475 -4.358809,-4.53475 z"
     p-id="13604"
     fill="#ffffff"
     id="path5"
     style="stroke-width:0.255573" />
</svg>
