<?xml version="1.0" encoding="UTF-8" standalone="no"?>
<svg
   t="1725271003974"
   class="icon"
   viewBox="0 0 256 256"
   version="1.1"
   p-id="16297"
   width="16"
   height="16"
   id="svg4"
   sodipodi:docname="detail1_white.svg"
   inkscape:version="1.3.2 (091e20e, 2023-11-25, custom)"
   xmlns:inkscape="http://www.inkscape.org/namespaces/inkscape"
   xmlns:sodipodi="http://sodipodi.sourceforge.net/DTD/sodipodi-0.dtd"
   xmlns="http://www.w3.org/2000/svg"
   xmlns:svg="http://www.w3.org/2000/svg">
  <defs
     id="defs4" />
  <sodipodi:namedview
     id="namedview4"
     pagecolor="#ffffff"
     bordercolor="#000000"
     borderopacity="0.25"
     inkscape:showpageshadow="2"
     inkscape:pageopacity="0.0"
     inkscape:pagecheckerboard="0"
     inkscape:deskcolor="#d1d1d1"
     inkscape:zoom="6.3515625"
     inkscape:cx="16.295203"
     inkscape:cy="42.902829"
     inkscape:window-width="1920"
     inkscape:window-height="1009"
     inkscape:window-x="-8"
     inkscape:window-y="-8"
     inkscape:window-maximized="1"
     inkscape:current-layer="svg4" />
  <path
     d="M 150.93333,256 H 28.444444 C 12.77037,256 0,243.22963 0,227.55556 V 28.444444 C 0,12.77037 12.77037,0 28.444444,0 H 227.55556 C 243.22963,0 256,12.77037 256,28.444444 V 151.34815 c 0,5.24444 -4.23704,9.48148 -9.48148,9.48148 -5.24445,0 -9.48148,-4.23704 -9.48148,-9.48148 V 28.444444 c 0,-5.214814 -4.26667,-9.481481 -9.48148,-9.481481 H 28.444444 c -5.214814,0 -9.481481,4.266667 -9.481481,9.481481 V 227.55556 c 0,5.21481 4.266667,9.48148 9.481481,9.48148 H 150.93333 c 5.24445,0 9.48148,4.23703 9.48148,9.48148 0,5.24444 -4.23703,9.48148 -9.48148,9.48148 z"
     fill="#ffffff"
     p-id="16298"
     id="path1"
     style="stroke-width:0.296296" />
  <path
     d="M 185.27407,75.88148 H 52.91852 c -5.24445,0 -9.48148,-4.23704 -9.48148,-9.48148 0,-5.24444 4.23703,-9.48148 9.48148,-9.48148 h 132.35555 c 5.24445,0 9.48149,4.23704 9.48149,9.48148 0,5.24444 -4.23704,9.48148 -9.48149,9.48148 z m -90.04444,61.6 H 52.91852 c -5.24445,0 -9.48148,-4.23704 -9.48148,-9.48148 0,-5.24444 4.23703,-9.48148 9.48148,-9.48148 H 95.2 c 5.24444,0 9.48148,4.23704 9.48148,9.48148 0.0296,5.21481 -4.23704,9.48148 -9.45185,9.48148 z m 0,61.57037 H 52.91852 c -5.24445,0 -9.48148,-4.23704 -9.48148,-9.48148 0,-5.24444 4.23703,-9.48148 9.48148,-9.48148 H 95.2 c 5.24444,0 9.48148,4.23704 9.48148,9.48148 0.0296,5.24444 -4.23704,9.48148 -9.45185,9.48148 z"
     fill="#ffffff"
     p-id="16299"
     id="path2"
     style="stroke-width:0.296296" />
  <path
     d="m 165.03704,215.2 c -28.08889,0 -50.96297,-22.87407 -50.96297,-50.96296 0,-28.08889 22.87408,-50.96297 50.96297,-50.96297 28.08889,0 50.96296,22.87408 50.96296,50.96297 C 216,192.32593 193.15556,215.2 165.03704,215.2 Z m 0,-82.96296 c -17.65926,0 -32,14.34074 -32,32 0,17.65926 14.34074,32 32,32 17.65926,0 32,-14.34074 32,-32 0,-17.65926 -14.34074,-32 -32,-32 z"
     fill="#ffffff"
     p-id="16300"
     id="path3"
     style="stroke-width:0.296296" />
  <path
     d="m 223.31852,236.44444 -32.68148,-32.68148 c -3.70371,-3.7037 -3.70371,-9.71852 0,-13.42222 3.7037,-3.7037 9.71852,-3.7037 13.42222,0 l 32.65185,32.68148 c 3.7037,3.70371 3.7037,9.71852 0,13.42222 -3.7037,3.70371 -9.68889,3.70371 -13.39259,0 z"
     fill="#ffffff"
     p-id="16301"
     id="path4"
     style="stroke-width:0.296296" />
</svg>
