<?xml version="1.0" encoding="UTF-8" standalone="no"?>
<svg
   t="1725343594014"
   class="icon"
   viewBox="0 0 1024 1024"
   version="1.1"
   p-id="19438"
   width="16"
   height="16"
   id="svg1"
   sodipodi:docname="detect_black.svg"
   inkscape:version="1.3.2 (091e20e, 2023-11-25, custom)"
   xmlns:inkscape="http://www.inkscape.org/namespaces/inkscape"
   xmlns:sodipodi="http://sodipodi.sourceforge.net/DTD/sodipodi-0.dtd"
   xmlns="http://www.w3.org/2000/svg"
   xmlns:svg="http://www.w3.org/2000/svg">
  <defs
     id="defs1" />
  <sodipodi:namedview
     id="namedview1"
     pagecolor="#ffffff"
     bordercolor="#000000"
     borderopacity="0.25"
     inkscape:showpageshadow="2"
     inkscape:pageopacity="0.0"
     inkscape:pagecheckerboard="0"
     inkscape:deskcolor="#d1d1d1"
     inkscape:zoom="25.40625"
     inkscape:cx="10.607626"
     inkscape:cy="11.079951"
     inkscape:window-width="1920"
     inkscape:window-height="1009"
     inkscape:window-x="-8"
     inkscape:window-y="-8"
     inkscape:window-maximized="1"
     inkscape:current-layer="svg1" />
  <path
     d="M 929.79022,759.53207 V 263.98797 A 135.20534,135.17577 0 1 0 761.15992,90.577574 H 262.79724 A 135.20534,135.17577 0 1 0 90.252343,262.78377 v 498.5547 a 135.20534,135.17577 0 1 0 172.544897,172.2061 h 498.36268 a 135.20534,135.17577 0 1 0 168.6303,-173.7114 z M 888.23488,90.577574 A 45.168823,45.158944 0 1 1 843.06605,135.73657 45.168823,45.158944 0 0 1 888.23488,90.577574 Z M 262.79724,180.89547 h 498.36268 a 135.50646,135.47683 0 0 0 78.29263,80.684 v 499.759 a 134.30197,134.2726 0 0 0 -78.29263,80.985 H 262.79724 a 134.30197,134.2726 0 0 0 -82.20726,-81.8882 v -497.6515 a 134.30197,134.2726 0 0 0 82.20726,-81.8883 z M 135.42115,90.577574 A 45.168823,45.158944 0 1 1 90.252343,135.73657 45.168823,45.158944 0 0 1 135.42115,90.577574 Z m 0,842.966996 a 45.168823,45.158944 0 1 1 45.16883,-45.1589 45.469948,45.460003 0 0 1 -45.16883,45.1589 z m 752.81373,0 a 45.168823,45.158944 0 1 1 45.16884,-45.1589 45.469948,45.460003 0 0 1 -45.16884,44.8579 z"
     fill="#000000"
     p-id="19439"
     id="path1"
     style="stroke-width:1.21378" />
</svg>
