<?xml version="1.0" encoding="UTF-8" standalone="no"?>
<svg
   t="1725267402861"
   class="icon"
   viewBox="0 0 341.33333 341.33333"
   version="1.1"
   p-id="5205"
   width="16"
   height="16"
   id="svg1"
   sodipodi:docname="fill_directory_white.svg"
   inkscape:version="1.3.2 (091e20e, 2023-11-25, custom)"
   xmlns:inkscape="http://www.inkscape.org/namespaces/inkscape"
   xmlns:sodipodi="http://sodipodi.sourceforge.net/DTD/sodipodi-0.dtd"
   xmlns="http://www.w3.org/2000/svg"
   xmlns:svg="http://www.w3.org/2000/svg">
  <defs
     id="defs1" />
  <sodipodi:namedview
     id="namedview1"
     pagecolor="#ffffff"
     bordercolor="#000000"
     borderopacity="0.25"
     inkscape:showpageshadow="2"
     inkscape:pageopacity="0.0"
     inkscape:pagecheckerboard="0"
     inkscape:deskcolor="#d1d1d1"
     inkscape:zoom="16.9375"
     inkscape:cx="24"
     inkscape:cy="23.055351"
     inkscape:window-width="1920"
     inkscape:window-height="1009"
     inkscape:window-x="-8"
     inkscape:window-y="-8"
     inkscape:window-maximized="1"
     inkscape:current-layer="svg1" />
  <path
     d="m 304.00237,289.12048 c 0,11.1854 -9.57009,20.21285 -21.34283,20.21285 H 15.988132 L 53.31909,145.97605 c 0,-11.14944 9.49414,-20.21286 21.30485,-20.21286 h 245.40454 c 11.77273,0 21.30485,9.06342 21.30485,20.21286 z M 58.63581,110.58557 H 298.64768 V 90.732375 c 0,-11.149442 -9.5701,-20.212855 -21.34283,-20.212855 H 149.32384 V 52.212855 C 149.32384,41.063413 139.75374,32 127.98101,32 H 21.342827 C 9.570093,32 0,41.063413 0,52.212855 V 289.08451 L 37.292983,130.76246 c 0,-11.11348 9.570097,-20.17689 21.342827,-20.17689 z m 0,0"
     p-id="5206"
     fill="#ffffff"
     id="path1"
     style="stroke-width:0.369575" />
</svg>
