<?xml version="1.0" encoding="UTF-8" standalone="no"?>
<svg
   t="1725270922152"
   class="icon"
   viewBox="0 0 256 256"
   version="1.1"
   p-id="15179"
   width="16"
   height="16"
   id="svg2"
   sodipodi:docname="import1_black.svg"
   inkscape:version="1.3.2 (091e20e, 2023-11-25, custom)"
   xmlns:inkscape="http://www.inkscape.org/namespaces/inkscape"
   xmlns:sodipodi="http://sodipodi.sourceforge.net/DTD/sodipodi-0.dtd"
   xmlns="http://www.w3.org/2000/svg"
   xmlns:svg="http://www.w3.org/2000/svg">
  <defs
     id="defs2" />
  <sodipodi:namedview
     id="namedview2"
     pagecolor="#ffffff"
     bordercolor="#000000"
     borderopacity="0.25"
     inkscape:showpageshadow="2"
     inkscape:pageopacity="0.0"
     inkscape:pagecheckerboard="0"
     inkscape:deskcolor="#d1d1d1"
     inkscape:zoom="50.8125"
     inkscape:cx="7.8228783"
     inkscape:cy="7.8425585"
     inkscape:window-width="1920"
     inkscape:window-height="1009"
     inkscape:window-x="-8"
     inkscape:window-y="-8"
     inkscape:window-maximized="1"
     inkscape:current-layer="svg2" />
  <path
     d="M 129.75999,110.24001 V 70.240005 a 8.0000005,8.0000013 0 0 0 -16,0 v 40.000005 a 31.999999,32.000003 0 0 0 32,32 h 40 a 8.0000005,8.0000013 0 0 0 0,-16 h -40 a 13.599999,13.600001 0 0 1 -4.08,-0.64 l 85.2,-85.200005 a 7.9999995,8.0000003 0 0 0 -10.88,-11.280002 l -85.6,85.200007 a 13.599999,13.600001 0 0 1 -0.64,-4.08 z"
     p-id="15180"
     fill="#000000"
     id="path1"
     style="stroke-width:0.34375" />
  <path
     d="m 247.99999,88.00001 a 7.9999995,8.0000003 0 0 0 -8,8 v 128 a 15.999999,16.000001 0 0 1 -16,16 H 31.999999 a 15.999999,16.000001 0 0 1 -15.999998,-16 V 32.000003 A 15.999999,16.000001 0 0 1 31.999999,16.000001 H 159.99999 A 7.9999997,8.0000005 0 0 0 159.99999,0 H 31.999999 A 31.999999,32.000003 0 0 0 0,32.000003 V 224.00001 A 31.999999,32.000003 0 0 0 31.999999,256 H 223.99999 A 31.999999,32.000003 0 0 0 256,224.00001 v -128 a 7.9999995,8.0000003 0 0 0 -8.00001,-8 z"
     p-id="15181"
     fill="#000000"
     id="path2"
     style="stroke-width:0.34375" />
</svg>
