<?xml version="1.0" encoding="UTF-8" standalone="no"?>
<svg
   t="1728456642888"
   class="icon"
   viewBox="0 0 1024 1024"
   version="1.1"
   p-id="13956"
   width="16"
   height="16"
   id="svg1"
   sodipodi:docname="mouse_pointer_black.svg"
   inkscape:version="1.3.2 (091e20e, 2023-11-25, custom)"
   xmlns:inkscape="http://www.inkscape.org/namespaces/inkscape"
   xmlns:sodipodi="http://sodipodi.sourceforge.net/DTD/sodipodi-0.dtd"
   xmlns="http://www.w3.org/2000/svg"
   xmlns:svg="http://www.w3.org/2000/svg">
  <defs
     id="defs1" />
  <sodipodi:namedview
     id="namedview1"
     pagecolor="#ffffff"
     bordercolor="#000000"
     borderopacity="0.25"
     inkscape:showpageshadow="2"
     inkscape:pageopacity="0.0"
     inkscape:pagecheckerboard="0"
     inkscape:deskcolor="#d1d1d1"
     inkscape:zoom="25.40625"
     inkscape:cx="11.591636"
     inkscape:cy="10.410824"
     inkscape:window-width="1920"
     inkscape:window-height="1009"
     inkscape:window-x="-8"
     inkscape:window-y="-8"
     inkscape:window-maximized="1"
     inkscape:current-layer="svg1" />
  <path
     d="M 573.17376,1024 A 64.658996,66.375757 0 0 1 517.10095,990.83276 L 359.13269,709.96508 171.73873,894.77244 A 25.847443,26.533719 0 0 1 128,875.63499 V 26.555969 a 25.847443,26.533719 0 0 1 8.12579,-19.3115682 c 6.46186,-6.243716 18.489,-10.870534 31.16233,-3.358174 L 278.6906,69.913729 883.0765,428.11894 a 25.847443,26.533719 0 0 1 -5.73488,48.4655 l -249.58937,74.17832 157.97634,280.87601 a 64.618607,66.334298 0 0 1 -23.65848,90.62089 L 605.36997,1015.1278 A 64.238973,65.944584 0 0 1 573.17376,1024 Z M 365.01298,640.82816 a 25.039711,25.704541 0 0 1 3.63479,0.26534 25.847443,26.533719 0 0 1 18.75556,13.00152 l 174.47024,310.21234 a 12.923721,13.26686 0 0 0 17.64895,4.859 l 156.70013,-92.86803 a 12.923721,13.26686 0 0 0 4.73332,-18.12584 L 566.48572,547.96014 a 25.847443,26.533719 0 0 1 15.20154,-38.75581 L 804.68608,442.92807 179.69488,72.517349 V 813.34708 L 347.11363,648.22443 a 25.847443,26.533719 0 0 1 17.89935,-7.39627 z"
     fill="#000000"
     p-id="13957"
     id="path1"
     style="stroke-width:1.22757" />
</svg>
