<?xml version="1.0" encoding="UTF-8" standalone="no"?>
<svg
   t="1732785007427"
   class="icon"
   viewBox="0 0 1024 1024"
   version="1.1"
   p-id="10859"
   width="16"
   height="16"
   id="svg1"
   sodipodi:docname="align_h_distribution_black.svg"
   inkscape:version="1.3.2 (091e20e, 2023-11-25, custom)"
   xmlns:inkscape="http://www.inkscape.org/namespaces/inkscape"
   xmlns:sodipodi="http://sodipodi.sourceforge.net/DTD/sodipodi-0.dtd"
   xmlns="http://www.w3.org/2000/svg"
   xmlns:svg="http://www.w3.org/2000/svg">
  <defs
     id="defs1" />
  <sodipodi:namedview
     id="namedview1"
     pagecolor="#ffffff"
     bordercolor="#000000"
     borderopacity="0.25"
     inkscape:showpageshadow="2"
     inkscape:pageopacity="0.0"
     inkscape:pagecheckerboard="0"
     inkscape:deskcolor="#d1d1d1"
     inkscape:zoom="25.40625"
     inkscape:cx="9.5842558"
     inkscape:cy="11.00123"
     inkscape:window-width="1920"
     inkscape:window-height="1009"
     inkscape:window-x="-8"
     inkscape:window-y="-8"
     inkscape:window-maximized="1"
     inkscape:current-layer="svg1" />
  <path
     d="m 448,192 h 128 a 64,64 0 0 1 64,63.99999 V 768 a 64,64 0 0 1 -64,63.99999 H 448 A 64,64 0 0 1 384,768 V 255.99999 A 64,64 0 0 1 448,192 Z M 63.999999,0 A 64,64 0 0 1 128,63.99999 V 960 A 64,64 0 0 1 0,960 V 63.99999 A 64,64 0 0 1 63.999999,0 Z M 960,0 a 64,64 0 0 1 64,63.99999 V 960 a 64.000005,64.000005 0 0 1 -128.00001,0 V 63.99999 A 64,64 0 0 1 960,0 Z"
     fill="#000000"
     p-id="10860"
     id="path1"
     style="stroke-width:1.49999" />
</svg>
