<?xml version="1.0" encoding="UTF-8" standalone="no"?>
<svg
   t="1731465255767"
   class="icon"
   viewBox="0 0 1024 1024"
   version="1.1"
   p-id="5138"
   width="16"
   height="16"
   id="svg1"
   sodipodi:docname="collapse_right_black.svg"
   inkscape:version="1.3.2 (091e20e, 2023-11-25, custom)"
   xmlns:inkscape="http://www.inkscape.org/namespaces/inkscape"
   xmlns:sodipodi="http://sodipodi.sourceforge.net/DTD/sodipodi-0.dtd"
   xmlns="http://www.w3.org/2000/svg"
   xmlns:svg="http://www.w3.org/2000/svg">
  <defs
     id="defs1" />
  <sodipodi:namedview
     id="namedview1"
     pagecolor="#ffffff"
     bordercolor="#000000"
     borderopacity="0.25"
     inkscape:showpageshadow="2"
     inkscape:pageopacity="0.0"
     inkscape:pagecheckerboard="0"
     inkscape:deskcolor="#d1d1d1"
     inkscape:zoom="35.929863"
     inkscape:cx="11.146716"
     inkscape:cy="9.3376364"
     inkscape:window-width="1920"
     inkscape:window-height="1009"
     inkscape:window-x="-8"
     inkscape:window-y="-8"
     inkscape:window-maximized="1"
     inkscape:current-layer="svg1" />
  <path
     d="M 980.66956,0 H 42.234968 C 18.913347,0 0,20.294475 0,45.319134 0,70.343794 18.913347,90.638268 42.234968,90.638268 H 980.66956 c 23.32164,0 42.23494,-20.294474 42.23494,-45.319134 C 1022.9045,20.294475 1003.9912,0 980.66956,0 Z m 1.08227,320.56206 H 368.39451 c -23.32162,0 -42.23497,20.29448 -42.23497,45.31914 0,25.02466 18.91335,45.31913 42.23497,45.31913 h 613.37052 c 23.32167,0 42.23497,-20.29447 42.23497,-45.31913 0,-25.02466 -18.9133,-45.31914 -42.24817,-45.31914 z m 0,292.23761 H 368.39451 c -23.32162,0 -42.23497,20.29447 -42.23497,45.31913 0,25.02466 18.91335,45.31914 42.23497,45.31914 h 613.37052 c 23.32167,0 42.23497,-20.29448 42.23497,-45.31914 0,-25.02466 -18.9133,-45.31913 -42.24817,-45.31913 z m 0,320.56206 H 43.317239 c -23.321621,0 -42.2349679,20.29448 -42.2349679,45.31914 0,25.02463 18.9133469,45.31913 42.2349679,45.31913 H 981.75183 c 23.32167,0 42.23497,-20.2945 42.23497,-45.31913 0,-25.03883 -18.9001,-45.31914 -42.23497,-45.31914 z M 17.672694,703.43794 V 320.56206 L 248.03805,530.37549 Z"
     p-id="5139"
     fill="#000000"
     id="path1"
     style="stroke-width:1.36718" />
</svg>
