<?xml version="1.0" standalone="no"?><!DOCTYPE svg PUBLIC "-//W3C//DTD SVG 1.1//EN" "http://www.w3.org/Graphics/SVG/1.1/DTD/svg11.dtd"><svg t="1725268404632" class="icon" viewBox="0 0 1024 1024" version="1.1" xmlns="http://www.w3.org/2000/svg" p-id="10745" width="64" height="64" xmlns:xlink="http://www.w3.org/1999/xlink"><path d="M912.6 446.2c0.3-1.9 0.4-3.8 0.4-5.7V230c0-35.5-22.6-61.9-41.5-77.7-21.6-18.1-51.6-34-89.1-47.2C709.9 79.5 614.2 65.4 513 65.4c-101.2 0-196.9 14.1-269.4 39.7-37.5 13.2-67.5 29.1-89.1 47.2-18.9 15.8-41.5 42.2-41.5 77.7v217.8c0 1.9 0.1 3.8 0.4 5.7 3.4 21.5 15.1 41.4 34.4 59.2-19.8 18.6-34.8 42.4-34.8 71.9v217.8c0 1.9 0.1 3.8 0.4 5.7 7.5 47.4 55.1 87 137.4 114.5 71.6 24 164.7 37.2 262.2 37.2 96.5 0 189.9-14.6 263-41.1 81.8-29.6 129-70.4 136.6-117.9 0.3-1.9 0.4-3.8 0.4-5.7V584.6c0-20.7-7.7-48-38.4-75 21.5-19.3 34.3-40.6 38-63.4zM185 444.1V328.7c16.8 9.6 36.4 18.4 58.6 26.3 72.5 25.6 168.2 39.7 269.4 39.7 101.2 0 196.9-14.1 269.4-39.7 22.2-7.9 41.8-16.7 58.6-26.3v108.1c-4.5 15-33.6 39.3-89.5 59.6-65.5 23.7-150.2 36.8-238.5 36.8-89.9 0-174.9-11.9-239.3-33.4-55.5-18.6-84.3-41.4-88.7-55.7zM267.6 173c65-23 152.1-35.6 245.4-35.6 93.2 0 180.4 12.7 245.4 35.6 60.6 21.4 82.6 45.9 82.6 57 0 11.2-22 35.6-82.6 57-65 23-152.1 35.6-245.4 35.6-93.2 0-180.4-12.7-245.4-35.6-60.6-21.3-82.6-45.8-82.6-57 0-11.2 22-35.6 82.6-57z m483.9 677.9C686 874.6 601.3 887.7 513 887.7c-89.9 0-174.9-11.9-239.3-33.4-55.5-18.6-84.3-41.3-88.7-55.6V683.2c16.8 9.6 36.4 18.4 58.6 26.3 72.5 25.6 168.2 39.7 269.4 39.7 101.2 0 196.9-14.1 269.4-39.7 22.2-7.9 41.8-16.7 58.6-26.3v108.1c-4.5 15-33.6 39.3-89.5 59.6zM841 584.6c0 11.2-22 35.6-82.6 57-65 23-152.1 35.6-245.4 35.6-93.2 0-180.4-12.7-245.4-35.6-60.6-21.4-82.6-45.9-82.6-57 0-6.7 7.5-18.2 27.7-31.3 11.7 5.2 24.5 10.1 38.2 14.7 71.6 24 164.7 37.2 262.2 37.2 96.5 0 189.9-14.6 263-41.1 11.7-4.2 22.7-8.7 33-13.4C831 564 841 576.8 841 584.6z" fill="#ffffff" p-id="10746"></path><path d="M766 425.2m-36 0a36 36 0 1 0 72 0 36 36 0 1 0-72 0Z" fill="#ffffff" p-id="10747"></path><path d="M766 779.8m-36 0a36 36 0 1 0 72 0 36 36 0 1 0-72 0Z" fill="#ffffff" p-id="10748"></path></svg>