<?xml version="1.0" standalone="no"?><!DOCTYPE svg PUBLIC "-//W3C//DTD SVG 1.1//EN" "http://www.w3.org/Graphics/SVG/1.1/DTD/svg11.dtd"><svg t="1725271015496" class="icon" viewBox="0 0 1024 1024" version="1.1" xmlns="http://www.w3.org/2000/svg" p-id="16558" xmlns:xlink="http://www.w3.org/1999/xlink" width="64" height="64"><path d="M594.88598 947.253722 34.84281 947.253722 34.84281 34.791646l912.462077 0 0 453.621665c0 9.618867 7.776956 17.395823 17.395823 17.395823s17.395823-7.776956 17.395823-17.395823L982.096532 17.395823 982.096532 0l-17.395823 0L17.446987 0 0.051164 0l0 17.395823 0 947.253722 0 17.395823 17.395823 0 577.438993 0c9.618867 0 17.395823-7.776956 17.395823-17.395823S604.504847 947.253722 594.88598 947.253722z" p-id="16559" fill="#000000"></path><path d="M1016.683522 923.104227 900.950135 806.552213c-2.558209-2.558209-5.730389-4.195463-9.107225-4.809433 32.233437-36.940542 51.778155-85.341861 51.778155-138.245628 0-116.245028-94.244429-210.489457-210.489457-210.489457s-210.489457 94.244429-210.489457 210.489457 94.244429 210.489457 210.489457 210.489457c52.903767 0 101.305086-19.544719 138.347956-51.880484 0.61397 3.274508 2.251224 6.446687 4.707105 9.004897l115.733387 116.552014c6.753672 6.856001 17.805136 6.856001 24.661137 0.102328S1023.437194 929.960228 1016.683522 923.104227zM733.131608 839.194964c-97.007295 0-175.697812-78.690517-175.697812-175.697812s78.690517-175.697812 175.697812-175.697812 175.697812 78.690517 175.697812 175.697812S830.241231 839.092635 733.131608 839.194964z" p-id="16560" fill="#000000"></path><path d="M503.097432 435.509543c0-9.618867-7.776956-17.395823-17.395823-17.395823L156.818227 418.11372c-9.618867 0-17.395823 7.776956-17.395823 17.395823s7.776956 17.395823 17.395823 17.395823l328.883382 0C495.320476 452.905366 503.097432 445.12841 503.097432 435.509543z" p-id="16561" fill="#000000"></path><path d="M816.631558 226.452683c0-9.618867-7.776956-17.395823-17.395823-17.395823L156.818227 209.05686c-9.618867 0-17.395823 7.776956-17.395823 17.395823 0 9.618867 7.776956 17.395823 17.395823 17.395823L799.235735 243.848506C808.854602 243.848506 816.631558 236.07155 816.631558 226.452683z" p-id="16562" fill="#000000"></path><path d="M156.818227 627.170581c-9.618867 0-17.395823 7.776956-17.395823 17.395823s7.776956 17.395823 17.395823 17.395823l189.512142 0c9.618867 0 17.395823-7.776956 17.395823-17.395823s-7.776956-17.395823-17.395823-17.395823L156.818227 627.170581z" p-id="16563" fill="#000000"></path></svg>