<?xml version="1.0" encoding="UTF-8" standalone="no"?>
<svg
   t="1725343594014"
   class="icon"
   viewBox="0 0 1024 1024"
   version="1.1"
   p-id="19438"
   width="16"
   height="16"
   id="svg1"
   sodipodi:docname="detect_white.svg"
   inkscape:version="1.3.2 (091e20e, 2023-11-25, custom)"
   xmlns:inkscape="http://www.inkscape.org/namespaces/inkscape"
   xmlns:sodipodi="http://sodipodi.sourceforge.net/DTD/sodipodi-0.dtd"
   xmlns="http://www.w3.org/2000/svg"
   xmlns:svg="http://www.w3.org/2000/svg">
  <defs
     id="defs1" />
  <sodipodi:namedview
     id="namedview1"
     pagecolor="#ffffff"
     bordercolor="#000000"
     borderopacity="0.25"
     inkscape:showpageshadow="2"
     inkscape:pageopacity="0.0"
     inkscape:pagecheckerboard="0"
     inkscape:deskcolor="#d1d1d1"
     inkscape:zoom="17.964932"
     inkscape:cx="22.293433"
     inkscape:cy="18.786601"
     inkscape:window-width="1920"
     inkscape:window-height="1009"
     inkscape:window-x="-8"
     inkscape:window-y="-8"
     inkscape:window-maximized="1"
     inkscape:current-layer="svg1" />
  <path
     d="M 929.79022,759.53218 V 263.988 A 135.20534,135.17578 0 1 0 761.15992,90.57764 H 262.79724 A 135.20534,135.17578 0 1 0 90.252344,262.78376 V 761.33853 A 135.20534,135.17578 0 1 0 262.79724,933.54464 h 498.36268 a 135.20534,135.17578 0 1 0 168.6303,-173.7114 z M 888.23488,90.57764 a 45.168823,45.158947 0 1 1 -45.16882,45.15895 45.168823,45.158947 0 0 1 45.16882,-45.15895 z m -625.43764,90.3179 h 498.36268 a 135.50647,135.47684 0 0 0 78.29263,80.68398 v 499.75901 a 134.30197,134.27261 0 0 0 -78.29263,80.98504 H 262.79724 A 134.30197,134.27261 0 0 0 180.58998,760.43535 V 262.78376 a 134.30197,134.27261 0 0 0 82.20726,-81.88822 z M 135.42116,90.57764 A 45.168823,45.158947 0 1 1 90.252344,135.73659 45.168823,45.158947 0 0 1 135.42116,90.57764 Z m 0,842.967 a 45.168823,45.158947 0 1 1 45.16882,-45.15894 45.469949,45.460006 0 0 1 -45.16882,45.15894 z m 752.81372,0 a 45.168823,45.158947 0 1 1 45.16884,-45.15894 45.469949,45.460006 0 0 1 -45.16884,44.85794 z"
     fill="#ffffff"
     p-id="19439"
     id="path1"
     style="stroke-width:1.21378" />
</svg>
