<?xml version="1.0" encoding="UTF-8" standalone="no"?>
<svg
   t="1727164704459"
   class="icon"
   viewBox="0 0 1024 1024"
   version="1.1"
   p-id="4270"
   width="16"
   height="16"
   id="svg1"
   sodipodi:docname="exist_white.svg"
   inkscape:version="1.3.2 (091e20e, 2023-11-25, custom)"
   xmlns:inkscape="http://www.inkscape.org/namespaces/inkscape"
   xmlns:sodipodi="http://sodipodi.sourceforge.net/DTD/sodipodi-0.dtd"
   xmlns="http://www.w3.org/2000/svg"
   xmlns:svg="http://www.w3.org/2000/svg">
  <defs
     id="defs1" />
  <sodipodi:namedview
     id="namedview1"
     pagecolor="#ffffff"
     bordercolor="#000000"
     borderopacity="0.25"
     inkscape:showpageshadow="2"
     inkscape:pageopacity="0.0"
     inkscape:pagecheckerboard="0"
     inkscape:deskcolor="#d1d1d1"
     inkscape:zoom="50.8125"
     inkscape:cx="8"
     inkscape:cy="8"
     inkscape:window-width="1920"
     inkscape:window-height="1009"
     inkscape:window-x="-8"
     inkscape:window-y="-8"
     inkscape:window-maximized="1"
     inkscape:current-layer="svg1" />
  <path
     d="m 523.59267,489.93054 c -21.54597,0.46704 -37.23706,-16.81363 -37.70545,-38.29772 V 38.531239 C 485.88722,17.280677 501.57831,0 523.59267,0 c 22.24856,0 37.93966,17.280677 37.93966,38.531239 V 451.16578 c -0.2342,10.50852 -4.44972,20.31647 -11.94397,27.55567 -7.49425,7.47272 -15.45689,11.20909 -25.99569,11.20909 z M 511.64871,1023.9969 C 376.75217,1024.4639 247.00793,972.8554 149.81684,879.91338 103.44616,835.31055 65.974894,782.30091 40.213402,723.4532 -19.272225,588.24358 -12.480559,432.95101 58.714837,303.34593 102.04098,225.11584 144.43035,179.81245 214.45477,131.70678 c 18.03304,-12.3767 41.21839,-10.50852 52.92816,4.90398 6.08908,8.17329 9.36781,18.21476 7.72844,28.25624 -1.87356,10.04147 -7.72844,19.14885 -16.15948,24.7534 -54.56752,37.59715 -103.98275,87.10395 -135.83332,145.01757 -32.553161,58.84771 -51.757182,129.8386 -51.757182,197.09312 0,110.92327 42.623562,219.74483 124.357752,298.20844 81.96838,78.69713 202.8132,129.13803 316.63216,128.43746 113.81895,0.70057 227.8721,-42.96817 309.84049,-121.6653 C 902.98919,760.11625 953.107,642.65436 953.107,531.49757 953.3412,464.24305 940.92884,395.58738 908.37569,336.73967 876.29092,278.82605 822.19179,222.54709 767.62426,184.94995 c -8.43103,-5.60455 -14.28592,-14.47841 -16.15948,-24.28636 -1.87356,-10.04148 2.10776,-20.78352 7.02586,-27.08863 12.64655,-15.17897 33.02155,-14.4784 51.05459,-2.1017 64.63793,44.3693 117.80028,103.21701 155.73993,171.63915 71.19544,129.60508 77.98704,284.66412 18.50144,420.10726 -25.99569,58.84771 -63.23275,112.09088 -109.60344,156.46018 -47.07327,45.06988 -102.10919,81.03237 -162.76579,105.55225 -63.70114,25.921 -131.38361,38.9983 -199.76866,38.7648 z m 0,0"
     p-id="4271"
     fill="#ffffff"
     id="path1"
     style="stroke-width:1.14189" />
</svg>
