<?xml version="1.0" encoding="UTF-8" standalone="no"?>
<svg
   t="1728455101836"
   class="icon"
   viewBox="0 0 1024 1024"
   version="1.1"
   p-id="2624"
   width="16"
   height="16"
   id="svg1"
   sodipodi:docname="file_white.svg"
   inkscape:version="1.3.2 (091e20e, 2023-11-25, custom)"
   xmlns:inkscape="http://www.inkscape.org/namespaces/inkscape"
   xmlns:sodipodi="http://sodipodi.sourceforge.net/DTD/sodipodi-0.dtd"
   xmlns="http://www.w3.org/2000/svg"
   xmlns:svg="http://www.w3.org/2000/svg">
  <defs
     id="defs1" />
  <sodipodi:namedview
     id="namedview1"
     pagecolor="#ffffff"
     bordercolor="#000000"
     borderopacity="0.25"
     inkscape:showpageshadow="2"
     inkscape:pageopacity="0.0"
     inkscape:pagecheckerboard="0"
     inkscape:deskcolor="#d1d1d1"
     inkscape:zoom="25.40625"
     inkscape:cx="12.103321"
     inkscape:cy="11.473555"
     inkscape:window-width="1920"
     inkscape:window-height="1009"
     inkscape:window-x="-8"
     inkscape:window-y="-8"
     inkscape:window-maximized="1"
     inkscape:current-layer="svg1" />
  <path
     d="M 810.37455,298.67436 636.81808,120.75222 V 298.67436 Z M 553.58658,384.00462 V 85.34256 H 220.78892 q -17.50032,0 -29.56387,12.38169 a 38.500694,40.615873 0 0 0 -12.02855,30.2896 v 768.00923 a 38.314024,40.418947 0 0 0 12.02855,30.28962 q 12.00522,12.3694 29.56387,12.3694 h 582.4105 q 17.59365,0 29.59886,-12.3694 a 38.500694,40.615873 0 0 0 11.98189,-30.28962 V 384.01692 Z M 220.81225,0 H 636.81808 L 928,298.67436 V 896.01077 C 928,931.2727 915.80811,961.5746 891.44767,986.4611 867.08724,1011.3475 837.67504,1024 803.18775,1024 H 220.78892 q -51.62593,0 -88.22493,-37.5389 C 108.18022,961.5746 96,931.2727 96,896.01077 V 128.00154 Q 96,75.07783 132.56399,37.55122 169.12799,0.024616 220.78892,0 Z m 0,0"
     fill="#ffffff"
     p-id="2625"
     id="path1"
     style="stroke-width:1.1983" />
</svg>
