<?xml version="1.0" standalone="no"?><!DOCTYPE svg PUBLIC "-//W3C//DTD SVG 1.1//EN" "http://www.w3.org/Graphics/SVG/1.1/DTD/svg11.dtd"><svg t="1725268595178" class="icon" viewBox="0 0 1024 1024" version="1.1" xmlns="http://www.w3.org/2000/svg" p-id="11890" xmlns:xlink="http://www.w3.org/1999/xlink" width="64" height="64"><path d="M601.152 708.288 400 568 344 568l0 112-224 0 0 112 224 0 0 112L400 904l201.152-140.288C624 749.504 624 722.496 601.152 708.288L601.152 708.288zM891.264 331.2 638.656 76.864C630.528 68.608 619.456 64 607.936 64L232 64C196.032 64 176 83.712 176 120L176 512 288 512 288 176l280 0 0 168c0 24.192 32 56 56 56l168 0 0.768 448L624 848 624 960l224 0c35.968 0 56-19.712 56-56L904 362.176C904 350.528 899.392 339.392 891.264 331.2L891.264 331.2z" p-id="11891" fill="#2c2c2c"></path></svg>