<?xml version="1.0" encoding="UTF-8" standalone="no"?>
<svg
   t="1725268595178"
   class="icon"
   viewBox="0 0 256 256"
   version="1.1"
   p-id="11890"
   width="16"
   height="16"
   id="svg1"
   sodipodi:docname="import_black.svg"
   inkscape:version="1.3.2 (091e20e, 2023-11-25, custom)"
   xmlns:inkscape="http://www.inkscape.org/namespaces/inkscape"
   xmlns:sodipodi="http://sodipodi.sourceforge.net/DTD/sodipodi-0.dtd"
   xmlns="http://www.w3.org/2000/svg"
   xmlns:svg="http://www.w3.org/2000/svg">
  <defs
     id="defs1" />
  <sodipodi:namedview
     id="namedview1"
     pagecolor="#ffffff"
     bordercolor="#000000"
     borderopacity="0.25"
     inkscape:showpageshadow="2"
     inkscape:pageopacity="0.0"
     inkscape:pagecheckerboard="0"
     inkscape:deskcolor="#d1d1d1"
     inkscape:zoom="6.3515625"
     inkscape:cx="17.554736"
     inkscape:cy="45.264453"
     inkscape:window-width="1920"
     inkscape:window-height="1009"
     inkscape:window-x="-8"
     inkscape:window-y="-8"
     inkscape:window-maximized="1"
     inkscape:current-layer="svg1" />
  <path
     d="M 157.11086,184.08229 91.42857,144 H 73.14286 v 32 H 0 v 32 h 73.14286 v 32 h 18.28571 l 65.68229,-40.08229 c 7.46057,-4.05942 7.46057,-11.776 0,-15.83542 z M 251.84131,76.34286 169.35706,3.675429 C 166.70302,1.316571 163.08767,0 159.32604,0 H 36.57143 C 24.82677,0 18.28571,5.632 18.28571,16 V 128 H 54.85714 V 32 h 91.42857 v 48 c 0,6.912 10.44898,16 18.28572,16 h 54.85714 l 0.25078,128 h -55.10792 v 32 h 73.14286 C 249.45894,256 256,250.368 256,240 V 85.19314 c 0,-3.328 -1.50465,-6.50971 -4.15869,-8.85028 z"
     p-id="11891"
     fill="#2c2c2c"
     id="path1"
     style="stroke-width:0.305442" />
</svg>
