<?xml version="1.0" encoding="UTF-8" standalone="no"?>
<svg
   t="1728456642888"
   class="icon"
   viewBox="0 0 1024 1024"
   version="1.1"
   p-id="13956"
   width="16"
   height="16"
   id="svg1"
   sodipodi:docname="mouse_pointer_white.svg"
   inkscape:version="1.3.2 (091e20e, 2023-11-25, custom)"
   xmlns:inkscape="http://www.inkscape.org/namespaces/inkscape"
   xmlns:sodipodi="http://sodipodi.sourceforge.net/DTD/sodipodi-0.dtd"
   xmlns="http://www.w3.org/2000/svg"
   xmlns:svg="http://www.w3.org/2000/svg">
  <defs
     id="defs1" />
  <sodipodi:namedview
     id="namedview1"
     pagecolor="#ffffff"
     bordercolor="#000000"
     borderopacity="0.25"
     inkscape:showpageshadow="2"
     inkscape:pageopacity="0.0"
     inkscape:pagecheckerboard="0"
     inkscape:deskcolor="#d1d1d1"
     inkscape:zoom="17.964932"
     inkscape:cx="17.728985"
     inkscape:cy="18.730937"
     inkscape:window-width="1920"
     inkscape:window-height="1009"
     inkscape:window-x="-8"
     inkscape:window-y="-8"
     inkscape:window-maximized="1"
     inkscape:current-layer="svg1" />
  <path
     d="m 573.17375,1024 a 64.658995,66.375757 0 0 1 -56.0728,-33.16724 L 359.13269,709.96508 171.73872,894.77244 A 25.847443,26.533719 0 0 1 128,875.63499 V 26.555979 a 25.847443,26.533719 0 0 1 8.12579,-19.3115782 c 6.46186,-6.243716 18.489,-10.870534 31.16233,-3.358174 L 278.6906,69.913729 883.07651,428.11894 a 25.847443,26.533719 0 0 1 -5.7349,48.46549 l -249.58937,74.17833 157.97634,280.87601 a 64.618607,66.334298 0 0 1 -23.65849,90.62089 L 605.36997,1015.1278 A 64.238974,65.944584 0 0 1 573.17375,1024 Z M 365.01298,640.82816 a 25.039711,25.704541 0 0 1 3.6348,0.26534 25.847443,26.533719 0 0 1 18.75555,13.00151 l 174.47024,310.21235 a 12.923722,13.26686 0 0 0 17.64896,4.859 l 156.70012,-92.86802 a 12.923722,13.26686 0 0 0 4.73331,-18.12586 L 566.48572,547.96014 a 25.847443,26.533719 0 0 1 15.20153,-38.75581 L 804.68607,442.92807 179.69489,72.517349 V 813.34708 L 347.11363,648.22443 a 25.847443,26.533719 0 0 1 17.89935,-7.39627 z"
     fill="#ffffff"
     p-id="13957"
     id="path1"
     style="stroke-width:1.22758" />
</svg>
