<?xml version="1.0" encoding="UTF-8" standalone="no"?>
<svg
   t="1725343752884"
   class="icon"
   viewBox="0 0 1024 1024"
   version="1.1"
   p-id="22262"
   width="16"
   height="16"
   id="svg1"
   sodipodi:docname="obb_white.svg"
   inkscape:version="1.3.2 (091e20e, 2023-11-25, custom)"
   xmlns:inkscape="http://www.inkscape.org/namespaces/inkscape"
   xmlns:sodipodi="http://sodipodi.sourceforge.net/DTD/sodipodi-0.dtd"
   xmlns="http://www.w3.org/2000/svg"
   xmlns:svg="http://www.w3.org/2000/svg">
  <defs
     id="defs1" />
  <sodipodi:namedview
     id="namedview1"
     pagecolor="#ffffff"
     bordercolor="#000000"
     borderopacity="0.25"
     inkscape:showpageshadow="2"
     inkscape:pageopacity="0.0"
     inkscape:pagecheckerboard="0"
     inkscape:deskcolor="#d1d1d1"
     inkscape:zoom="12.703125"
     inkscape:cx="17.279213"
     inkscape:cy="19.325953"
     inkscape:window-width="1920"
     inkscape:window-height="1009"
     inkscape:window-x="-8"
     inkscape:window-y="-8"
     inkscape:window-maximized="1"
     inkscape:current-layer="svg1" />
  <path
     d="M 418.36015,38.830987 38.790322,418.36823 a 132.47145,132.46009 0 0 0 0,187.30752 L 418.36015,985.21304 a 132.47145,132.46009 0 0 0 187.32361,0 L 985.25363,605.67575 a 132.47145,132.46009 0 0 0 0,-187.21962 L 605.68376,38.743087 a 132.47145,132.46009 0 0 0 -187.2357,0 z m 132.99888,54.40796 379.4819,379.537233 a 55.555381,55.550611 0 0 1 0,78.57951 l -379.4819,379.44935 a 55.555381,55.550611 0 0 1 -78.58625,0 L 93.202952,551.35569 a 55.555381,55.550611 0 0 1 0,-78.57951 L 472.77278,93.238947 a 55.555381,55.550611 0 0 1 78.58625,0 z"
     fill="#ffffff"
     p-id="22263"
     id="path1"
     style="stroke-width:1.20176" />
</svg>
