<?xml version="1.0" encoding="UTF-8" standalone="no"?>
<svg
   t="1728455579996"
   class="icon"
   viewBox="0 0 1024 1024"
   version="1.1"
   p-id="3774"
   width="16"
   height="16"
   id="svg5"
   sodipodi:docname="polygon_black.svg"
   inkscape:version="1.3.2 (091e20e, 2023-11-25, custom)"
   xmlns:inkscape="http://www.inkscape.org/namespaces/inkscape"
   xmlns:sodipodi="http://sodipodi.sourceforge.net/DTD/sodipodi-0.dtd"
   xmlns="http://www.w3.org/2000/svg"
   xmlns:svg="http://www.w3.org/2000/svg">
  <defs
     id="defs5" />
  <sodipodi:namedview
     id="namedview5"
     pagecolor="#ffffff"
     bordercolor="#000000"
     borderopacity="0.25"
     inkscape:showpageshadow="2"
     inkscape:pageopacity="0.0"
     inkscape:pagecheckerboard="0"
     inkscape:deskcolor="#d1d1d1"
     inkscape:zoom="25.40625"
     inkscape:cx="12.654367"
     inkscape:cy="12.418204"
     inkscape:window-width="1920"
     inkscape:window-height="1009"
     inkscape:window-x="-8"
     inkscape:window-y="-8"
     inkscape:window-maximized="1"
     inkscape:current-layer="svg5" />
  <path
     d="m 82.36227,83.101846 m -82.36227,0 a 82.362275,83.101846 0 1 0 164.72455,0 82.362275,83.101846 0 1 0 -164.72455,0 z"
     p-id="3775"
     fill="#000000"
     id="path1"
     style="stroke-width:1.1333" />
  <path
     d="m 941.63773,319.316 m -82.36228,0 a 82.362275,83.101846 0 1 0 164.72455,0 82.362275,83.101846 0 1 0 -164.72455,0 z"
     p-id="3776"
     fill="#000000"
     id="path2"
     style="stroke-width:1.1333" />
  <path
     d="m 941.63773,822.4806 m -82.36228,0 a 82.362275,83.101846 0 1 0 164.72455,0 82.362275,83.101846 0 1 0 -164.72455,0 z"
     p-id="3777"
     fill="#000000"
     id="path3"
     style="stroke-width:1.1333" />
  <path
     d="m 203.76201,940.87226 m -82.36227,0 a 82.362274,83.101845 0 1 0 164.72454,0 82.362274,83.101845 0 1 0 -164.72454,0 z"
     p-id="3778"
     fill="#000000"
     id="path4"
     style="stroke-width:1.1333" />
  <path
     d="M 175.10445,980.03261 41.632437,36.54205 975.4852,293.24707 V 851.62316 Z M 123.20494,129.66166 232.41957,901.59811 907.79022,793.22419 V 345.38494 Z"
     p-id="3779"
     fill="#000000"
     id="path5"
     style="stroke-width:1.1333" />
</svg>
