<?xml version="1.0" encoding="UTF-8" standalone="no"?>
<svg
   t="1725343972735"
   class="icon"
   viewBox="0 0 1024 1024"
   version="1.1"
   p-id="29353"
   width="16"
   height="16"
   id="svg5"
   sodipodi:docname="pose_black.svg"
   inkscape:version="1.3.2 (091e20e, 2023-11-25, custom)"
   xmlns:inkscape="http://www.inkscape.org/namespaces/inkscape"
   xmlns:sodipodi="http://sodipodi.sourceforge.net/DTD/sodipodi-0.dtd"
   xmlns="http://www.w3.org/2000/svg"
   xmlns:svg="http://www.w3.org/2000/svg">
  <defs
     id="defs5" />
  <sodipodi:namedview
     id="namedview5"
     pagecolor="#ffffff"
     bordercolor="#000000"
     borderopacity="0.25"
     inkscape:showpageshadow="2"
     inkscape:pageopacity="0.0"
     inkscape:pagecheckerboard="0"
     inkscape:deskcolor="#d1d1d1"
     inkscape:zoom="25.40625"
     inkscape:cx="2.0664207"
     inkscape:cy="9.7810578"
     inkscape:window-width="1920"
     inkscape:window-height="1009"
     inkscape:window-x="-8"
     inkscape:window-y="-8"
     inkscape:window-maximized="1"
     inkscape:current-layer="svg5" />
  <path
     d="M64.658286 0h234.466743v64.658286H64.658286v234.466743H0V0h64.658286z m0 959.341714h234.466743V1024H0V724.874971h64.658286v234.466743zM1024 64.658286v234.466743h-64.658286V64.658286h-234.466743V0H1024v64.658286zM959.341714 1024h-234.466743v-64.658286h234.466743v-234.466743H1024V1024h-64.658286zM526.628571 285.608229a127.970743 127.970743 0 0 1-110.855314-64.073143 128.351086 128.351086 0 0 1 0-128.175543 127.970743 127.970743 0 0 1 238.855314 64.073143A128.087771 128.087771 0 0 1 526.628571 285.608229z m0-51.258515c27.4432 0 52.779886-14.657829 66.501486-38.443885a77.0048 77.0048 0 0 0 0-76.946286 76.770743 76.770743 0 0 0-143.301486 38.473143A76.858514 76.858514 0 0 0 526.628571 234.349714z m51.2 692.194743v-205.092571h51.2c28.2624 0 51.2-22.966857 51.2-51.287772v-256.351085c0-28.320914-22.9376-51.287771-51.2-51.287772h-204.8c-28.2624 0-51.2 22.966857-51.2 51.287772v256.351085c0 28.320914 22.9376 51.287771 51.2 51.287772h51.2v205.092571h102.4z m51.2-153.834057v153.834057a51.317029 51.317029 0 0 1-51.2 51.258514h-102.4a51.170743 51.170743 0 0 1-51.2-51.258514V772.681143c-56.554057 0-102.4-45.933714-102.4-102.546286v-256.351086a102.458514 102.458514 0 0 1 102.4-102.546285h204.8c56.554057 0 102.4 45.904457 102.4 102.546285v256.351086a102.458514 102.458514 0 0 1-102.4 102.546286z"
     fill="#455166"
     p-id="29355"
     id="path2"
     style="fill:#000000" />
  <path
     d="M234.057143 399.857371a78.0288 78.0288 0 1 0 156.028343 0 78.0288 78.0288 0 0 0-156.028343 0zM663.171657 399.857371a78.0288 78.0288 0 1 0 156.028343 0 78.0288 78.0288 0 0 0-156.028343 0zM502.198857 779.498057a78.0288 78.0288 0 1 0 78.0288-135.168 78.0288 78.0288 0 0 0-78.0288 135.168z"
     fill="#3277FE"
     p-id="29356"
     id="path3"
     style="fill:#000000" />
  <path
     d="M706.647771 432.508343l-25.453714-14.423772 14.423772-25.453714 25.453714 14.423772-14.423772 25.453714z m-28.8768 50.907428l-25.453714-14.453028 14.423772-25.453714 25.453714 14.453028-14.423772 25.453714z m-28.906057 50.907429l-25.453714-14.453029 14.453029-25.453714 25.453714 14.423772-14.453029 25.453714z m-28.8768 50.878171l-25.453714-14.453028 14.453029-25.453714 25.453714 14.453028-14.453029 25.453714z m-28.8768 50.907429l-25.453714-14.453029 14.453029-25.453714 25.453714 14.423772-14.453029 25.453714z m-28.8768 50.878171l-25.453714-14.453028 14.453029-25.453714 25.453714 14.453028-14.453029 25.453714z m-54.710857 14.306743l24.897829-15.36 11.293257 18.314972-12.434286 7.665371-12.726857-7.197257 3.803429-6.729143 25.453714 14.423772-16.003657 28.233142-24.283429-39.350857z m-30.72-49.824914l24.897829-15.36 15.36 24.897829-24.897829 15.36-15.36-24.868572z m-30.72-49.795657l24.897829-15.36 15.36 24.897828-24.897829 15.36-15.36-24.897828z m-30.72-49.795657l24.897829-15.36 15.36 24.868571-24.868572 15.389257-15.389257-24.897828z m-30.72-49.824915l24.897829-15.330742 15.36 24.868571-24.868572 15.389257-15.389257-24.927086z m-30.72-49.795657l24.897829-15.36 15.36 24.897829-24.868572 15.36-15.389257-24.868572z m-9.186743-67.028114v29.257143h-5.9392v-14.628572l12.434286-7.694628 12.229486 19.836343-24.868572 15.36-26.038857-42.130286h32.182857z m58.514286 0v29.257143h-29.257143v-29.257143h29.257143z m58.514286 0v29.257143h-29.257143v-29.257143h29.257143z m58.514285 0v29.257143h-29.257142v-29.257143h29.257142z m58.514286 0v29.257143h-29.257143v-29.257143h29.257143z m58.514286 0v29.257143h-29.257143v-29.257143h29.257143z m58.514286 0v29.257143h-29.257143v-29.257143h29.257143z"
     fill="#3277FE"
     p-id="29358"
     id="path5"
     style="fill:#000000" />
</svg>
