<?xml version="1.0" encoding="UTF-8" standalone="no"?>
<svg
   t="1730770369477"
   class="icon"
   viewBox="0 0 1024 1024"
   version="1.1"
   p-id="5979"
   width="16"
   height="16"
   id="svg1"
   sodipodi:docname="紧凑内容_black1.svg"
   inkscape:version="1.3.2 (091e20e, 2023-11-25, custom)"
   xmlns:inkscape="http://www.inkscape.org/namespaces/inkscape"
   xmlns:sodipodi="http://sodipodi.sourceforge.net/DTD/sodipodi-0.dtd"
   xmlns="http://www.w3.org/2000/svg"
   xmlns:svg="http://www.w3.org/2000/svg">
  <defs
     id="defs1" />
  <sodipodi:namedview
     id="namedview1"
     pagecolor="#ffffff"
     bordercolor="#000000"
     borderopacity="0.25"
     inkscape:showpageshadow="2"
     inkscape:pageopacity="0.0"
     inkscape:pagecheckerboard="0"
     inkscape:deskcolor="#d1d1d1"
     inkscape:zoom="17.964932"
     inkscape:cx="3.7573202"
     inkscape:cy="11.939929"
     inkscape:window-width="1920"
     inkscape:window-height="1009"
     inkscape:window-x="-8"
     inkscape:window-y="-8"
     inkscape:window-maximized="1"
     inkscape:current-layer="svg1" />
  <g
     id="g1"
     transform="matrix(1.488761,0,0,1.4978372,-288.18607,-287.30792)"
     style="fill:#000000;fill-opacity:1">
    <path
       d="m 661.78477,327.48681 c -9.98241,9.99484 -9.98241,26.18649 0,36.18133 l 167.59467,167.66293 c 1.05759,1.10796 1.05759,2.85151 0,3.95947 L 661.78477,702.95347 c -10.60291,9.8799 -10.8976,26.58339 -0.64983,36.83117 10.24777,10.24777 26.95127,9.95308 36.83116,-0.64983 L 865.56077,571.54014 c 21.11195,-21.11411 21.11195,-55.34456 0,-76.45867 L 697.9661,327.48681 c -9.99484,-9.98241 -26.18649,-9.98241 -36.18133,0 z"
       fill="#000000"
       p-id="5980"
       id="path1"
       sodipodi:nodetypes="cccccsccccc"
       style="fill:#000000;fill-opacity:1" />
    <path
       d="m 413.1844,327.48681 c 9.98241,9.99484 9.98241,26.18649 0,36.18133 L 245.58973,531.33107 c -1.05759,1.10796 -1.05759,2.85151 0,3.95947 L 413.1844,702.95347 c 10.60291,9.8799 10.8976,26.58339 0.64983,36.83117 -10.24777,10.24777 -26.95127,9.95308 -36.83116,-0.64983 L 209.4084,571.54014 c -21.11195,-21.11411 -21.11195,-55.34456 0,-76.45867 L 377.00307,327.48681 c 9.99484,-9.98241 26.18649,-9.98241 36.18133,0 z"
       fill="#000000"
       p-id="5980"
       id="path1-6"
       sodipodi:nodetypes="cccccsccccc"
       style="fill:#000000;fill-opacity:1" />
  </g>
</svg>
