<?xml version="1.0" encoding="UTF-8" standalone="no"?>
<svg
   t="1725344696016"
   class="icon"
   viewBox="0 0 1024 1024"
   version="1.1"
   p-id="35633"
   width="16"
   height="16"
   id="svg3"
   sodipodi:docname="segment_blask.svg"
   inkscape:version="1.3.2 (091e20e, 2023-11-25, custom)"
   xmlns:inkscape="http://www.inkscape.org/namespaces/inkscape"
   xmlns:sodipodi="http://sodipodi.sourceforge.net/DTD/sodipodi-0.dtd"
   xmlns="http://www.w3.org/2000/svg"
   xmlns:svg="http://www.w3.org/2000/svg">
  <defs
     id="defs3" />
  <sodipodi:namedview
     id="namedview3"
     pagecolor="#ffffff"
     bordercolor="#000000"
     borderopacity="0.25"
     inkscape:showpageshadow="2"
     inkscape:pageopacity="0.0"
     inkscape:pagecheckerboard="0"
     inkscape:deskcolor="#d1d1d1"
     inkscape:zoom="25.40625"
     inkscape:cx="11.394834"
     inkscape:cy="9.7810578"
     inkscape:window-width="1920"
     inkscape:window-height="1009"
     inkscape:window-x="-8"
     inkscape:window-y="-8"
     inkscape:window-maximized="1"
     inkscape:current-layer="svg3" />
  <path
     d="M 456.86154,0 H 15.75385 A 15.753846,15.753846 0 0 0 0,15.75385 v 441.10769 a 15.753846,15.753846 0 0 0 15.75385,15.75384 h 441.10769 a 15.753846,15.753846 0 0 0 15.75384,-15.75384 V 15.75385 A 15.753846,15.753846 0 0 0 456.86154,0 Z m -63.01539,338.31385 -55.5323,55.5323 H 291.84 L 393.84615,291.84 Z m 0,-157.53847 -213.07077,213.07077 H 134.30154 L 393.84615,134.30154 Z M 78.76923,134.30154 134.30154,78.76923 h 46.47384 L 78.76923,180.77538 Z m 0,157.53846 L 291.84,78.76923 h 46.47385 L 78.76923,338.31385 Z"
     p-id="35634"
     fill="#000000"
     id="path1"
     style="stroke-width:1.23077" />
  <path
     d="m 551.38462,0 m 15.75384,0 H 1008.2462 Q 1024,0 1024,15.75385 v 441.10769 q 0,15.75384 -15.7538,15.75384 H 567.13846 q -15.75384,0 -15.75384,-15.75384 V 15.75385 Q 551.38462,0 567.13846,0 Z"
     p-id="35635"
     fill="#000000"
     id="path2"
     style="stroke-width:1.23077" />
  <path
     d="M 393.84615,945.2308 H 354.46154 V 1024 h 102.4 a 15.753846,15.753846 0 0 0 15.75384,-15.7538 v -102.4 h -78.76923 z m -196.92307,0 h 78.76923 V 1024 H 196.92308 Z M 78.76923,905.8462 H 0 v 102.4 A 15.753846,15.753846 0 0 0 15.75385,1024 h 102.4 V 945.2308 H 78.76923 Z M 0,748.30769 h 78.76923 v 78.76923 H 0 Z M 0,567.13846 v 102.4 h 78.76923 v -39.38461 h 39.38462 v -78.76923 h -102.4 A 15.753846,15.753846 0 0 0 0,567.13846 Z m 196.92308,-15.75384 h 78.76923 v 78.76923 h -78.76923 z m 259.93846,0 h -102.4 v 78.76923 h 39.38461 v 39.38461 h 78.76923 v -102.4 a 15.753846,15.753846 0 0 0 -15.75384,-15.75384 z m -63.01539,196.92307 h 78.76923 v 78.76923 H 393.84615 Z M 1008.2462,551.38462 H 567.13846 a 15.753846,15.753846 0 0 0 -15.75384,15.75384 V 1008.2462 A 15.753846,15.753846 0 0 0 567.13846,1024 H 1008.2462 A 15.753846,15.753846 0 0 0 1024,1008.2462 V 567.13846 a 15.753846,15.753846 0 0 0 -15.7538,-15.75384 z M 945.2308,889.69846 889.69846,945.2308 H 843.22462 L 945.2308,843.22462 Z m 0,-157.53846 L 732.16,945.2308 H 685.68615 L 945.2308,685.68615 Z m -315.07695,-46.47385 55.5323,-55.5323 H 732.16 L 630.15385,732.16 Z m 0,157.53847 213.07077,-213.07077 h 46.47384 L 630.15385,889.69846 Z"
     p-id="35636"
     fill="#000000"
     id="path3"
     style="stroke-width:1.23077" />
</svg>
